<svg width="18" height="22" viewBox="0 0 18 22" fill="none" xmlns="http://www.w3.org/2000/svg">
<path d="M14.625 7.56V5.4C14.625 2.376 12.15 0 9 0C5.85 0 3.375 2.376 3.375 5.4V7.56C1.4625 7.56 0 8.964 0 10.8V18.36C0 20.196 1.4625 21.6 3.375 21.6H14.625C16.5375 21.6 18 20.196 18 18.36V10.8C18 8.964 16.5375 7.56 14.625 7.56ZM5.625 5.4C5.625 3.564 7.0875 2.16 9 2.16C10.9125 2.16 12.375 3.564 12.375 5.4V7.56H5.625V5.4ZM10.125 16.2C10.125 16.848 9.675 17.28 9 17.28C8.325 17.28 7.875 16.848 7.875 16.2V12.96C7.875 12.312 8.325 11.88 9 11.88C9.675 11.88 10.125 12.312 10.125 12.96V16.2Z" fill="white"/>
</svg>
