<svg width="9" height="12" viewBox="0 0 9 12" fill="none" xmlns="http://www.w3.org/2000/svg">
<path d="M8.65584 11.7359C8.87621 11.5667 9 11.3373 9 11.098C9 10.8588 8.87621 10.6294 8.65584 10.4602L2.83731 5.99455L8.65584 1.52889C8.86996 1.35874 8.98844 1.13086 8.98576 0.894313C8.98308 0.657772 8.85946 0.431499 8.64152 0.264232C8.42358 0.0969655 8.12876 0.00208839 7.82056 3.29018e-05C7.51236 -0.00202258 7.21543 0.0889103 6.99374 0.253245L0.344159 5.35673C0.123794 5.52591 0 5.75533 0 5.99455C0 6.23377 0.123794 6.4632 0.344159 6.63238L6.99374 11.7359C7.21417 11.905 7.5131 12 7.82479 12C8.13648 12 8.43541 11.905 8.65584 11.7359Z" fill="white"/>
</svg>
