<svg width="13" height="13" viewBox="0 0 13 13" fill="none" xmlns="http://www.w3.org/2000/svg">
<path fill-rule="evenodd" clip-rule="evenodd" d="M11.8854 0.617369C11.4899 0.222068 10.9537 0 10.3946 0C9.83545 0 9.29921 0.222068 8.90379 0.617369L8.40687 1.115L11.8861 4.59419L12.3823 4.09726C12.5781 3.90145 12.7335 3.66899 12.8395 3.41314C12.9454 3.15729 13 2.88306 13 2.60613C13 2.32919 12.9454 2.05497 12.8395 1.79912C12.7335 1.54327 12.5781 1.3108 12.3823 1.115L11.8854 0.617369ZM10.8915 5.58804L7.41231 2.10885L1.02326 8.49861C0.883444 8.63845 0.785777 8.81478 0.741408 9.00748L0.018158 12.1388C-0.00879056 12.255 -0.00569943 12.3762 0.0271401 12.4909C0.0599797 12.6056 0.121486 12.7101 0.205865 12.7945C0.290243 12.8789 0.394715 12.9404 0.509436 12.9732C0.624158 13.0061 0.745351 13.0091 0.861598 12.9822L3.99357 12.2596C4.18602 12.2152 4.3621 12.1175 4.50174 11.9778L10.8915 5.58804Z" fill="#CDCDCD"/>
</svg>
