<svg width="9" height="12" viewBox="0 0 9 12" fill="none" xmlns="http://www.w3.org/2000/svg">
<path d="M0.344159 11.7359C0.123794 11.5667 0 11.3373 0 11.098C0 10.8588 0.123794 10.6294 0.344159 10.4602L6.16269 5.99455L0.344159 1.52889C0.130039 1.35874 0.0115592 1.13086 0.0142373 0.894314C0.0169155 0.657771 0.140538 0.431499 0.358478 0.264233C0.576418 0.0969658 0.871238 0.00208855 1.17944 3.33786e-05C1.48764 -0.00202274 1.78457 0.0889101 2.00626 0.253245L8.65584 5.35673C8.87621 5.52591 9 5.75533 9 5.99455C9 6.23377 8.87621 6.4632 8.65584 6.63238L2.00626 11.7359C1.78583 11.905 1.4869 12 1.17521 12C0.863519 12 0.56459 11.905 0.344159 11.7359Z" fill="#F6D4FF"/>
</svg>
